<?xml version="1.0" encoding="utf-8"?>
<!-- Generator: Adobe Illustrator 26.5.0, SVG Export Plug-In . SVG Version: 6.00 Build 0)  -->
<svg version="1.1" id="Layer_1" xmlns="http://www.w3.org/2000/svg" xmlns:xlink="http://www.w3.org/1999/xlink" x="0px" y="0px"
	 viewBox="0 0 800 800" style="enable-background:new 0 0 800 800;" xml:space="preserve">
<style type="text/css">
	.st0{fill:#092E20;}
	.st1{fill:#FFFFFD;}
</style>
<g>
	<path class="st0" d="M91.4,5h617.2C756.3,5,795,43.7,795,91.4v617.2c0,47.7-38.7,86.4-86.4,86.4H91.4C43.7,795,5,756.3,5,708.6
		V91.4C5,43.7,43.7,5,91.4,5z"/>
	<path class="st1" d="M580.1,295.7v204.4c0,70.4-5.2,104.2-20.6,133.4c-14.3,28.1-33.2,45.8-72.1,65.3l-81.9-38.9
		c38.9-18.3,57.8-34.3,69.8-59C488,575.6,492,546.4,492,469.7v-174H580.1z M439.9,159.5v408.1c-45.2,8.6-78.4,12-114.5,12
		c-107.6,0-163.7-48.7-163.7-142c0-89.9,59.5-148.3,151.7-148.3c14.3,0,25.2,1.1,38.4,4.6V159.5H439.9z M322,360.4
		c-44.7,0-70.4,27.5-70.4,75.6c0,46.9,24.6,72.7,69.8,72.7c9.7,0,17.7-0.6,30.3-2.3V365C341.4,361.5,332.8,360.4,322,360.4z
		 M580.1,160v90.5H492V160H580.1z"/>
</g>
</svg>
