<?xml version="1.0" encoding="utf-8"?>
<!-- Generator: Adobe Illustrator 26.5.0, SVG Export Plug-In . SVG Version: 6.00 Build 0)  -->
<svg version="1.1" id="Layer_1" xmlns="http://www.w3.org/2000/svg" xmlns:xlink="http://www.w3.org/1999/xlink" x="0px" y="0px"
	 viewBox="0 0 250 250" style="enable-background:new 0 0 250 250;" xml:space="preserve">
<style type="text/css">
	.st0{clip-path:url(#SVGID_00000103968980005584376300000016749098728661573010_);}
	.st1{fill:#F03C2E;}
</style>
<g>
	<defs>
		<rect id="SVGID_1_" x="2.71" y="4.29" width="242.86" height="242.86"/>
	</defs>
	<clipPath id="SVGID_00000100375805720823272850000003261756273885213363_">
		<use xlink:href="#SVGID_1_"  style="overflow:visible;"/>
	</clipPath>
	<g style="clip-path:url(#SVGID_00000100375805720823272850000003261756273885213363_);">
		<path class="st1" d="M241,114.9L134.96,8.87c-6.11-6.11-16.01-6.11-22.12-0.01c0,0,0,0-0.01,0.01L90.82,30.89l27.93,27.93
			c6.7-2.27,14.11-0.55,19.11,4.45c5.03,5.04,6.75,12.51,4.41,19.23l26.92,26.92c6.73-2.34,14.2-0.62,19.24,4.42
			c7.27,7.27,7.27,19.05,0,26.31c0,0,0,0,0,0c-7.28,7.27-19.06,7.27-26.34,0c-5.31-5.32-6.9-13.3-4.04-20.25l-25.11-25.1v66.07
			c9.21,4.55,12.99,15.71,8.44,24.92c-0.9,1.82-2.09,3.48-3.53,4.92c-7.27,7.27-19.05,7.27-26.31,0c0,0,0,0,0,0
			c-7.27-7.26-7.27-19.05-0.01-26.31c0,0,0,0,0.01-0.01c1.74-1.74,3.81-3.13,6.09-4.07V93.65c-9.51-3.92-14.05-14.81-10.13-24.32
			c0.01-0.03,0.02-0.06,0.03-0.08L80,41.71L7.29,114.4c-6.1,6.11-6.1,16.01,0,22.12l106.04,106.04c6.11,6.1,16.01,6.1,22.12,0
			L241,137.03C247.1,130.91,247.1,121.01,241,114.9"/>
	</g>
</g>
</svg>
