<?xml version="1.0" encoding="utf-8"?>
<!-- Generator: Adobe Illustrator 26.5.0, SVG Export Plug-In . SVG Version: 6.00 Build 0)  -->
<svg version="1.1" id="Layer_1" xmlns="http://www.w3.org/2000/svg" xmlns:xlink="http://www.w3.org/1999/xlink" x="0px" y="0px"
	 viewBox="0 0 250 250" style="enable-background:new 0 0 250 250;" xml:space="preserve">
<style type="text/css">
	.st0{fill:#FFFFFF;}
</style>
<path class="st0" d="M220.96,4H27.09C13.79,4,3.14,14.65,3.14,27.95v197.29c0,12.16,9.88,22.05,22.05,22.05h198.05
	c12.16,0,22.05-9.88,22.05-22.05V28.33C244.91,15.03,234.26,4,220.96,4z M86.01,18.83c6.08,0,11.02,4.94,11.02,11.02
	s-4.94,11.02-11.02,11.02s-11.02-4.94-11.02-11.02S80.31,18.83,86.01,18.83z M90.57,60.64c9.88,0,17.87,8.74,17.87,19.77
	S100.46,99.8,90.57,99.8s-17.49-8.74-17.49-19.39S81.07,60.64,90.57,60.64z M184.85,135.53c1.52,0,3.04,1.14,3.04,3.04
	c0,1.52-1.14,3.04-3.04,3.04h-46.38c-1.52,0-3.04-1.14-3.04-3.04c0-1.52,1.14-3.04,3.04-3.04H184.85z M150.63,97.52V63.68
	c0-1.52,1.14-3.04,3.04-3.04h9.12c6.84,0,12.16,5.32,12.16,12.16c0,6.84-5.32,12.16-12.16,12.16h-6.46v12.54
	c0,1.52-1.14,3.04-3.04,3.04C152.15,100.56,150.63,99.04,150.63,97.52z M180.66,69.01c-1.14-1.14-1.14-3.04,0-4.18
	c1.14-1.14,3.04-1.14,4.18,0l13.68,13.68c0.38,0.38,0.76,1.14,0.76,1.9c0,0.76-0.38,1.52-0.76,1.9L184.85,96
	c-0.76,0.38-1.14,0.76-1.9,0.76s-1.52-0.38-1.9-0.76c-1.14-1.14-1.14-3.04,0-4.18l11.78-11.78L180.66,69.01z M138.47,173.54H92.85
	c-1.52,0-3.04-1.14-3.04-3.04c0-1.52,1.14-3.04,3.04-3.04h45.62c1.52,0,3.04,1.14,3.04,3.04S139.99,173.54,138.47,173.54z
	 M141.51,203.19c0,1.52-1.14,3.04-3.04,3.04H92.85c-1.52,0-3.04-1.14-3.04-3.04c0-1.52,1.14-3.04,3.04-3.04h45.62
	C139.99,200.53,141.51,201.67,141.51,203.19z M101.98,157.58c-1.52,0-3.04-1.14-3.04-3.04c0-1.52,1.14-3.04,3.04-3.04h79.07
	c1.52,0,3.04,1.14,3.04,3.04c0,1.52-1.14,3.04-3.04,3.04H101.98z M129.35,99.8c-9.88,0-17.49-8.74-17.49-19.39
	s7.98-19.77,17.49-19.77c9.88,0,17.87,8.74,17.87,19.77S139.23,99.8,129.35,99.8z M129.35,119.56c1.52,0,3.04,1.14,3.04,2.66
	c0,1.52-1.14,3.04-3.04,3.04H87.15c-1.52,0-3.04-1.14-3.04-3.04c0-1.52,1.14-2.66,3.04-2.66
	C87.15,119.56,129.35,119.56,129.35,119.56z M58.26,18.83c6.08,0,11.02,4.94,11.02,11.02s-4.94,11.02-11.02,11.02
	s-11.02-4.94-11.02-11.02S52.18,18.83,58.26,18.83z M67.39,92.57c1.14,1.14,1.14,3.04,0,4.18c-0.38,0.38-1.14,0.76-1.9,0.76
	c-0.76,0-1.52-0.38-1.9-0.76L49.9,83.07c-1.14-1.14-1.14-3.04,0-4.18L63.58,65.2c1.14-1.14,3.04-1.14,4.18,0
	c1.14,1.14,1.14,3.04,0,4.18L55.6,80.79L67.39,92.57z M49.14,119.56h23.19c1.52,0,3.04,1.14,3.04,2.66c0,1.52-1.14,3.04-3.04,3.04
	H49.14c-1.52,0-3.04-1.14-3.04-3.04C46.1,120.7,47.24,119.56,49.14,119.56z M49.14,135.53h75.65c1.52,0,3.04,1.14,3.04,3.04
	c0,1.52-1.14,3.04-3.04,3.04H49.14c-1.52,0-3.04-1.14-3.04-3.04C46.1,137.05,47.24,135.53,49.14,135.53z M49.14,151.87h40.67
	c1.52,0,3.04,1.14,3.04,3.04c0,1.52-1.14,3.04-3.04,3.04H49.14c-1.52,0-3.04-1.14-3.04-3.04S47.24,151.87,49.14,151.87z
	 M49.14,167.84h29.27c1.52,0,3.04,1.14,3.04,3.04c0,1.52-1.14,3.04-3.04,3.04H49.14c-1.52,0-3.04-1.14-3.04-3.04
	C46.1,169.36,47.24,167.84,49.14,167.84z M49.14,184.18h83.63c1.52,0,3.04,1.14,3.04,3.04c0,1.9-1.14,3.04-3.04,3.04H49.14
	c-1.52,0-3.04-1.14-3.04-3.04C46.1,185.32,47.24,184.18,49.14,184.18z M49.14,200.53h29.27c1.52,0,3.04,1.14,3.04,3.04
	c0,1.52-1.14,3.04-3.04,3.04H49.14c-1.52,0-3.04-1.14-3.04-3.04S47.24,200.53,49.14,200.53z M34.7,222.2h-4.56
	c-1.52,0-2.66-1.14-2.66-3.04c0-1.52,1.14-3.04,2.66-3.04h4.18c1.52,0,3.04,1.14,3.04,3.04C37.36,221.06,36.22,222.2,34.7,222.2z
	 M34.7,206.23h-4.56c-1.52,0-2.66-1.14-2.66-3.04c0-1.52,1.14-3.04,2.66-3.04h4.18c1.52,0,3.04,1.14,3.04,3.04
	C37.36,204.71,36.22,206.23,34.7,206.23z M34.7,189.89h-4.56c-1.52,0-2.66-1.14-2.66-3.04s1.14-3.04,2.66-3.04h4.18
	c1.52,0,3.04,1.14,3.04,3.04S36.22,189.89,34.7,189.89z M34.7,173.54h-4.56c-1.52,0-2.66-1.14-2.66-3.04c0-1.52,1.14-3.04,2.66-3.04
	h4.18c1.52,0,3.04,1.14,3.04,3.04C37.36,172.4,36.22,173.54,34.7,173.54z M34.7,157.58h-4.56c-1.52,0-2.66-1.14-2.66-3.04
	c0-1.52,1.14-3.04,2.66-3.04h4.18c1.52,0,3.04,1.14,3.04,3.04C37.36,156.06,36.22,157.58,34.7,157.58z M34.7,141.23h-4.56
	c-1.52,0-2.66-1.14-2.66-3.04c0-1.52,1.14-3.04,2.66-3.04h4.18c1.52,0,3.04,1.14,3.04,3.04C37.36,140.09,36.22,141.23,34.7,141.23z
	 M34.7,125.26h-4.56c-1.52,0-2.66-1.14-2.66-3.04c0-1.52,1.14-2.66,2.66-2.66h4.18c1.52,0,3.04,1.14,3.04,2.66
	C37.36,123.74,36.22,125.26,34.7,125.26z M30.13,40.5c-6.08,0-11.02-4.94-11.02-11.02s4.94-11.02,11.02-11.02
	s11.02,4.94,11.02,11.02S36.22,40.5,30.13,40.5z M96.28,222.2H49.14c-1.52,0-3.04-1.14-3.04-3.04c0-1.52,1.14-3.04,3.04-3.04h47.14
	c1.52,0,3.04,1.14,3.04,3.04C98.94,221.06,97.8,222.2,96.28,222.2z M174.2,222.2h-63.48c-1.52,0-3.04-1.14-3.04-3.04
	c0-1.52,1.14-3.04,3.04-3.04h63.86c1.52,0,3.04,1.14,3.04,3.04C177.24,221.06,176.1,222.2,174.2,222.2z M189.03,189.89h-45.62
	c-1.52,0-3.04-1.14-3.04-3.04s1.14-3.04,3.04-3.04h45.62c1.52,0,3.04,1.14,3.04,3.04S190.55,189.89,189.03,189.89z M217.54,141.23
	h-19.01c-1.52,0-3.04-1.14-3.04-3.04c0-1.52,1.14-3.04,3.04-3.04h19.01c1.52,0,3.04,1.14,3.04,3.04
	C220.58,140.09,219.44,141.23,217.54,141.23z M218.68,39.74H113c-5.7,0-10.26-4.56-10.26-10.26S107.3,19.21,113,19.21h105.3
	c5.7,0,10.26,4.56,10.26,10.26C228.94,35.17,224.38,39.74,218.68,39.74z"/>
<path class="st0" d="M102.74,80.41c0,7.6-5.32,13.68-12.16,13.68c-6.46,0-11.78-6.08-11.78-13.68s5.32-13.68,11.78-13.68
	C97.42,66.73,102.74,72.81,102.74,80.41z M141.51,80.41c0,7.6-5.32,13.68-12.16,13.68c-6.46,0-11.78-6.08-11.78-13.68
	s5.32-13.68,11.78-13.68C136.19,66.73,141.51,72.81,141.51,80.41z M169.26,72.81c0,3.42-3.04,6.46-6.46,6.46h-6.46V66.35h6.46
	C166.22,66.73,169.26,69.39,169.26,72.81z"/>
</svg>
