<?xml version="1.0" encoding="utf-8"?>
<!-- Generator: Adobe Illustrator 26.5.0, SVG Export Plug-In . SVG Version: 6.00 Build 0)  -->
<svg version="1.1" id="Layer_1" xmlns="http://www.w3.org/2000/svg" xmlns:xlink="http://www.w3.org/1999/xlink" x="0px" y="0px"
	 viewBox="0 0 800 800" style="enable-background:new 0 0 800 800;" xml:space="preserve">
<style type="text/css">
	.st0{fill-rule:evenodd;clip-rule:evenodd;fill:url(#SVGID_1_);}
	.st1{fill-rule:evenodd;clip-rule:evenodd;fill:url(#SVGID_00000074417657610583425410000006227596823297024394_);}
</style>
<linearGradient id="SVGID_1_" gradientUnits="userSpaceOnUse" x1="-524.5814" y1="935.16" x2="-524.5814" y2="911.9304" gradientTransform="matrix(25 0 0 -25 13416 23386)">
	<stop  offset="0" style="stop-color:#327EBD"/>
	<stop  offset="1" style="stop-color:#1565A7"/>
</linearGradient>
<path class="st0" d="M316.5,7c-61.5,0-111.4,48.3-111.4,107.9v74.7h192.8v20.7H119.4C57.9,210.3,8,258.5,8,318.1v161.8
	c0,59.6,49.9,107.9,111.4,107.9h64.3v-91.3c0-59.6,49.9-107.9,111.4-107.9h205.6c52.1,0,94.3-40.9,94.3-91.3V114.9
	C594.9,55.3,545.1,7,483.5,7H316.5z M290.8,139.7c21.3,0,38.6-16.7,38.6-37.3c0-20.6-17.3-37.3-38.6-37.3
	c-21.3,0-38.6,16.7-38.6,37.3C252.2,123,269.5,139.7,290.8,139.7z"/>
<linearGradient id="SVGID_00000082334936524028166870000012827811049573333891_" gradientUnits="userSpaceOnUse" x1="-516.6988" y1="927.0296" x2="-516.6988" y2="903.8" gradientTransform="matrix(25 0 0 -25 13416 23386)">
	<stop  offset="0" style="stop-color:#FFDA4B"/>
	<stop  offset="1" style="stop-color:#F9C600"/>
</linearGradient>
<path style="fill-rule:evenodd;clip-rule:evenodd;fill:url(#SVGID_00000082334936524028166870000012827811049573333891_);" d="
	M483.5,791c61.5,0,111.4-48.3,111.4-107.9v-74.7H402.1v-20.7h278.5c61.5,0,111.4-48.3,111.4-107.9V318.1
	c0-59.6-49.9-107.9-111.4-107.9h-64.3v91.3c0,59.6-49.9,107.9-111.4,107.9H299.3c-52.1,0-94.3,40.9-94.3,91.3v182.5
	c0,59.6,49.9,107.9,111.4,107.9H483.5z M509.2,658.3c-21.3,0-38.6,16.7-38.6,37.3c0,20.6,17.3,37.3,38.6,37.3
	c21.3,0,38.6-16.7,38.6-37.3C547.8,675,530.5,658.3,509.2,658.3z"/>
</svg>
