<?xml version="1.0" encoding="utf-8"?>
<!-- Generator: Adobe Illustrator 26.5.0, SVG Export Plug-In . SVG Version: 6.00 Build 0)  -->
<svg version="1.1" id="Layer_1" xmlns="http://www.w3.org/2000/svg" xmlns:xlink="http://www.w3.org/1999/xlink" x="0px" y="0px"
	 viewBox="0 0 250 250" style="enable-background:new 0 0 250 250;" xml:space="preserve">
<style type="text/css">
	.st0{fill-rule:evenodd;clip-rule:evenodd;fill:#FFFFFF;}
</style>
<g>
	<path class="st0" d="M205.8,22.1l5.1,8.2c1.4,2.2,1,5.3-0.8,6.9l-5.5,5.1c1,3.1,1.6,6.5,1.8,10.1l6.1,0.9c2.1,0.2,3.7,2.9,3.5,5.5
		l-1.2,10.1c-0.4,2.6-2.4,4.6-4.5,4.3l-6.7-1.2c-1.2,3.1-2.7,6-4.5,8.7l3.7,6c1.4,2.2,1,5.3-0.8,6.9l-6.7,6.2
		c-1.8,1.7-4.3,1.2-5.7-0.9l-4.1-6.7c-2.6,1.2-5.5,2-8.2,2.4l-0.6,7.7c-0.4,2.6-2.4,4.6-4.5,4.3l-8.2-1.4c-2.1-0.5-3.7-2.9-3.5-5.5
		l1-8.2c-2.6-1.4-5.1-3.3-7.1-5.5l-5.1,4.6c-1.8,1.7-4.3,1.2-5.7-0.9l-5.1-8.2c-1.4-2.2-1-5.3,0.8-6.9l5.5-5.1
		c-1-3.1-1.6-6.7-1.8-10.1l-6.1-0.9c-2.1-0.2-3.7-2.9-3.5-5.5l1.2-10.1c0.4-2.6,2.4-4.6,4.5-4.3l6.7,1.2c1.2-3.1,2.7-6.2,4.5-8.7
		l-3.7-6c-1.6-2.4-1.2-5.5,0.6-7.2l6.7-6.2c1.8-1.7,4.3-1.2,5.7,0.9l4.1,6.5c2.6-0.9,5.3-2,8.2-2.2l0.8-7.4c0.4-2.6,2.4-4.6,4.5-4.3
		l8.2,1.4c2.1,0.5,3.7,2.9,3.5,5.5l-1,8.2c2.6,1.4,5.1,3.3,7.2,5.5L200,21C201.9,19.5,204.4,19.9,205.8,22.1L205.8,22.1L205.8,22.1z
		 M62.6,166.3v-39.6h16.7c3.1,0,5.5,0.2,7.1,0.9c1.6,0.7,2.9,2,3.9,3.6c1,1.7,1.6,3.8,1.6,6.5c0,2.2-0.4,4-1.2,5.8
		c-0.8,1.7-1.8,2.9-3.1,3.8c-0.8,0.7-2,1.2-3.5,1.7c1.2,0.5,2,0.9,2.6,1.4c0.4,0.2,1,0.9,1.6,2.2c0.6,0.9,1.2,2,1.4,2.4l4.9,11.5H83
		l-5.3-12c-0.6-1.7-1.4-2.6-1.8-3.1c-0.8-0.5-1.6-0.9-2.3-0.9h-1v16.1L62.6,166.3L62.6,166.3z M97.9,235.1H79.3L76.5,246H59.7
		l20-65.4h18l20,65.4h-17.2L97.9,235.1L97.9,235.1z M94.3,221.3l-5.9-23.6l-5.9,23.6H94.3L94.3,221.3z M121.6,180.6H149
		c6.1,0,10.4,1.7,13.3,5.3c2.9,3.3,4.5,8.4,4.5,14.9c0,6.7-1.6,11.8-4.9,15.4c-3.3,3.8-8.2,5.5-14.9,5.5h-9V246h-16.5L121.6,180.6
		L121.6,180.6z M138,208.8h4.1c3.1,0,5.5-0.7,6.7-2c1.4-1.4,2-3.1,2-5.3c0-2-0.6-3.8-1.8-5.3c-1.2-1.4-3.3-2.2-6.3-2.2H138V208.8
		L138,208.8z M173.5,180.6H190V246h-16.5V180.6L173.5,180.6z M72.6,142.7h4.3c0.4,0,1.4-0.2,2.6-0.5c0.6-0.2,1.2-0.5,1.6-1.2
		c0.4-0.7,0.6-1.4,0.6-2.4c0-1.2-0.4-2.4-1-2.9c-0.6-0.7-2-0.9-3.7-0.9h-4.3L72.6,142.7L72.6,142.7z M96.3,126.6h26.6v8.4h-16.6v6.2
		h15.5v8.2h-15.5v7.7h17.2v8.9H96.3V126.6L96.3,126.6z M125.9,153.2l9.4-0.7c0.2,2,0.6,3.3,1.2,4.3c1,1.7,2.6,2.4,4.3,2.4
		c1.4,0,2.6-0.5,3.3-1.2c0.8-0.7,1.2-1.7,1.2-2.9c0-0.9-0.4-2-1.2-2.9c-0.8-0.7-2.4-1.7-5.1-2.4c-4.3-1.2-7.4-2.9-9.4-4.8
		c-2-2-2.7-4.6-2.7-7.7c0-2,0.4-4,1.4-5.8c1-1.7,2.4-3.1,4.3-4.3c2-1.2,4.5-1.4,8-1.4c4.1,0,7.2,0.9,9.4,2.9c2.1,2,3.5,4.8,3.9,9.1
		l-9.4,0.7c-0.2-2-0.8-3.1-1.6-3.8s-2-1.2-3.3-1.2c-1.2,0-2,0.2-2.6,0.9c-0.6,0.5-0.8,1.4-0.8,2.2c0,0.7,0.2,1.2,0.8,1.7
		c0.4,0.5,1.6,0.9,3.3,1.4c4.3,1.2,7.4,2.4,9.4,3.6s3.3,2.6,4.1,4.3s1.4,3.6,1.4,5.8c0,2.6-0.6,4.8-1.8,6.9s-2.7,3.8-4.7,4.8
		c-2.1,1.2-4.7,1.7-7.8,1.7c-5.5,0-9.4-1.2-11.4-3.8C127.3,160.5,126.1,157.1,125.9,153.2L125.9,153.2z M156.6,126.6H187v9.8h-10.2
		v29.8h-10v-29.8h-10.2V126.6L156.6,126.6z M122.9,32.6c-3.5-0.2-7.2-0.2-10.8,0.2c-11,1.2-21.8,6.2-30.6,14.7
		c-10.2,9.8-18,24.3-21,43.4l-1,6l-4.9,0.9c-4.9,0.9-9,2.4-12.9,4.3c-3.7,1.7-6.9,3.8-9.8,6.5c-2.4,2-4.3,4.3-5.9,6.7
		c-5.1,7.4-7.4,16.9-7.4,26.4c0,9.8,2.7,19.7,7.4,27.6c1.8,2.9,3.9,5.8,6.3,8.2s5.1,4.3,8,6c1.8,0.9,3.5,1.7,5.5,2.2v18
		c-3.9-0.9-7.4-2.2-11-3.8c-4.5-2.2-8.4-5.3-12-8.7c-3.3-3.3-6.3-7.2-8.6-11.3c-6.5-11.1-10-24.5-10-38c0-13.7,3.3-27.1,10.8-38.2
		c2.3-3.6,5.3-6.7,8.4-9.6c3.7-3.3,8-6.2,12.9-8.4c3.3-1.7,7-2.9,10.8-4C51.4,61,60.6,44.6,72.4,33.6c11-10.5,24.3-16.5,38-18.3
		c7.2-0.7,14.5-0.5,21.6,1.2c-0.2,0.7-0.4,1.7-0.4,2.4v0.2c-0.2,1.4-0.2,2.6-0.2,4c-1.6,0.7-2.9,1.7-4.1,2.9l0,0
		C125.9,27.7,124.1,30,122.9,32.6L122.9,32.6z M226.6,78.8c1.2,1.2,2.1,2.4,3.1,3.8c2.1,2.9,4.1,6,5.9,9.4c6.3,11.8,9.4,27.6,9.4,43
		c-0.2,15.1-3.5,30.3-10.2,41.4c-4.5,7.2-10.2,13.2-17,17.8c-4.7,3.1-10,5.8-15.7,8v-18.7c3.1-1.4,6.1-2.9,8.6-4.8
		c5.1-3.6,9.4-8,12.5-12.9c4.9-8,7.2-19.2,7.4-31c0.2-12.2-2.4-24.5-7.1-33.4c-1.4-2.6-2.7-4.8-4.3-6.9c-0.6-0.7-1.2-1.4-1.8-2.2
		c0.2-1.2,0.2-2.4,0-3.6c1.6-0.7,2.9-1.7,4.1-2.9l0,0C223.8,83.8,225.4,81.4,226.6,78.8L226.6,78.8z M177,35.8
		c9,1.4,15.3,11.8,14.1,22.9s-9.6,18.7-18.6,17.3c-9-1.4-15.3-11.8-14.1-22.9C159.6,42,168,34.4,177,35.8L177,35.8L177,35.8z"/>
</g>
</svg>
