<?xml version="1.0" encoding="utf-8"?>
<!-- Generator: Adobe Illustrator 26.5.0, SVG Export Plug-In . SVG Version: 6.00 Build 0)  -->
<svg version="1.1" id="Layer_1" xmlns="http://www.w3.org/2000/svg" xmlns:xlink="http://www.w3.org/1999/xlink" x="0px" y="0px"
	 viewBox="0 0 250 250" style="enable-background:new 0 0 250 250;" xml:space="preserve">
<style type="text/css">
	.st0{fill:#0F80CC;}
	.st1{fill:url(#SVGID_1_);}
	.st2{fill:#003B57;}
</style>
<path class="st0" d="M184.5,14.4H32c-10.2,0-18.5,8.4-18.5,18.5v168.2c0,10.2,8.4,18.5,18.5,18.5h100.5c-1.1-50,15.9-147,52.1-205.4
	L184.5,14.4z"/>
<linearGradient id="SVGID_1_" gradientUnits="userSpaceOnUse" x1="-143.3597" y1="512.409" x2="-143.3597" y2="496.4036" gradientTransform="matrix(9.7635 0 0 -9.7635 1498.5721 5026.2373)">
	<stop  offset="0" style="stop-color:#97D9F6"/>
	<stop  offset="0.9202" style="stop-color:#0F80CC"/>
	<stop  offset="1" style="stop-color:#0F80CC"/>
</linearGradient>
<path class="st1" d="M178.9,19.9H32c-7.3,0-13.2,5.9-13.2,13.2V189c33.3-12.8,83.3-23.8,117.8-23.3
	C147.3,116.1,161.4,67.4,178.9,19.9L178.9,19.9L178.9,19.9L178.9,19.9z"/>
<path class="st2" d="M220.1,8.9c-10.5-9.3-23.1-5.6-35.6,5.5l-5.6,5.4c-21.4,22.6-40.8,64.6-47.3,96.7c2.3,5.1,4.2,10.4,5.5,15.8
	l0.8,3.7l0.8,3.8c0,0-0.2-0.7-1-3l-0.5-1.5c-0.1-0.3-0.2-0.5-0.3-0.8c-1.4-3.2-5.2-10.1-6.9-13.1c-1.4,3.9-2.6,7.9-3.8,11.9
	c4.9,9,7.9,24.3,7.9,24.3s-0.2-1-1.5-4.4c-1.1-3.1-6.5-12.6-7.8-14.8c-2.2,8.1-3.1,13.6-2.3,15c1.5,2.6,3,7.4,4.3,12
	c2,8.1,3.6,16.4,4.9,24.7l0.2,2.3c-0.4,9.3-0.2,18.6,0.6,27.8c1,11.6,2.8,21.6,5.1,26.9l1.6-0.9c-3.3-10.5-4.8-24.3-4.1-40.2
	c0.9-24.3,6.5-53.6,16.8-84.1c17.5-46.5,41.7-83.5,63.9-101.1C195.3,39.1,168,98.1,159.8,120c-9.1,24.5-15.6,47.5-19.6,69.4
	c6.8-20.6,28.6-29.5,28.6-29.5s10.8-13.2,23.2-32.1l-23.9,6.4l-7.7,3.4c0,0,19.7-12,36.6-17.4C220.2,83.6,245.5,31.6,220.1,8.9"/>
</svg>
